<?xml version="1.0" encoding="UTF-8"?>
<svg width="339.16" height="423.15" version="1.2" viewBox="0 0 254.37 317.36" xmlns="http://www.w3.org/2000/svg">
 <defs>
  <clipPath id="clip1">
   <path d="m0 64h247.37v248.11h-247.37z"/>
  </clipPath>
 </defs>
 <g transform="translate(3.1227 3.1227)">
  <path d="m186.27 187.59c0 35.887-30.457 65.109-62.707 65.109-32.246 0-61.441-29.223-61.441-65.109s29.195-64.848 61.441-64.848c32.25 0 62.707 28.961 62.707 64.848" fill="#fff"/>
  <g fill="#3f2b91">
   <path d="m77.383 161.27 0.01563 40.973 7.2227 0.125-0.0078-17.07 10.637-4e-3 -0.0039-6.832-10.504 8e-3 -0.0039-10.637 8.668-4e-3 2.625 4.5938 4.3359-3.5469-4.6016-7.6133-18.383 8e-3"/>
   <path d="m163.14 178.04 10.895-16.812h-7.75l-9.9766 15.633-8e-3 -16.02-7.2188-0.13281 0.0156 40.977 7.3555-4e-3 -8e-3 -13.66 2.625-3.0195 9.0664 16.02 8.0156-4e-3 -13.012-22.977"/>
   <path d="m168.73 223.82c-5.0195 6.8125-8.293 4.6875-8.7695 4.4805-3.6641-1.5977-5.2305-6.4609-5.3359-6.8555-0.14844-0.57031-23.668-83.625-23.668-83.625-2.6016-6.5625 5.4805-5.3125 6.668-5 14.441 3.8008 21.75 10.438 28.5 17s13.688 21.625 14.625 33.188-1.8125 22.27-4.1445 27.418c-2.3359 5.1445-2.8555 6.582-7.875 13.395zm-33.562 20.789c-0.79297 0.29297-7.0234 1.0859-10.48 1.0859s-9.875-0.625-13.707-1.3945c-3.8359-0.77344-5.0625-3.4805-4.4609-7.1914 0.60547-3.707 3.6992-18.039 3.6992-18.039h27.219s2.9414 9.7188 3.375 11.469c0.4375 1.7617 1.3125 5.6133 1.332 6.5312 0.0234 0.91797 1.1758 4.5352-6.9766 7.5391zm-42.449-20.508s-0.5 2.7188-0.9375 3.2188-0.90625 2.2812-4.4688 2.5-6.9062-3.7188-7.7188-4.75-5.625-6.5625-9.6875-16.719-3.5-20.312-3.5312-20.531 0.4375-10.438 4-18.5 7.5625-14.562 13.25-20.312 15.375-12.812 24.062-15.375c0 0 4.9531-1.7773 4.9531 1.375 0 0.14063-0.2461 2.7461-0.34766 2.7695 0 0-3.293 15.918-4 18.461-0.70703 2.5391-13.355 58.02-13.355 58.02zm30.125-61.812 10.699 43.699h-20.418zm0.82422-43.355c-38.43 0-69.582 31.137-69.582 69.547 0 38.41 31.152 69.547 69.582 69.547 38.43 0 69.582-31.137 69.582-69.547 0-38.41-31.152-69.547-69.582-69.547"/>
  </g>
  <g clip-path="url(#clip1)">
   <path d="m58.656 190.32c0-36.777 27.539-66.688 64.426-66.688 36.887 0 65.488 30.41 65.488 67.188 0 36.777-28.016 63.211-64.902 63.211s-65.012-26.934-65.012-63.711zm65.031-125.57c-68.312 0-123.69 55.375-123.69 123.68 0 68.305 55.375 123.68 123.69 123.68 68.309 0 123.69-55.375 123.69-123.68 0-68.309-55.379-123.68-123.69-123.68" fill="#3f2b91"/>
  </g>
  <g fill="#fff">
   <path d="m123.88 257.82c-38.43 0-69.582-31.062-69.582-69.379 0-38.316 31.152-69.379 69.582-69.379 38.43 0 69.582 31.062 69.582 69.379 0 38.316-31.152 69.379-69.582 69.379zm-0.19531-142.27c-40.242 0-72.867 32.621-72.867 72.859s32.625 72.859 72.867 72.859c40.246 0 72.867-32.621 72.867-72.859s-32.621-72.859-72.867-72.859"/>
   <path d="m123.7 297.95c-60.527 0-109.59-49.051-109.59-109.55 0-60.504 49.066-109.55 109.59-109.55 60.523 0 109.59 49.051 109.59 109.55 0 60.504-49.066 109.55-109.59 109.55zm-0.02344-224.37c-63.43 0-114.85 51.426-114.85 114.87 0 63.438 51.422 114.87 114.85 114.87 63.43 0 114.85-51.43 114.85-114.87 0-63.441-51.422-114.87-114.85-114.87"/>
   <path d="m22.895 180.26v1.7656h2.5938v15.078h2.9648v-19.297h-1.668c-1.0859 0.92188-2.4336 1.7148-3.8906 2.4531"/>
   <path d="m39.93 186.32c-0.39453 0.3164-1.1094 0.86719-1.6914 0.86719-0.82031 0-1.375-0.57813-1.375-1.8164v-3.1641c0-1.2383 0.55469-1.8203 1.5352-1.8203 0.97656 0 1.5312 0.58204 1.5312 1.8203zm-1.5312-8.5156c-3.2812 0-4.6562 1.793-4.6562 5.8008v2.2695c0 2.793 1.5859 3.8984 3.4922 3.8984 1.3203 0 1.8516-0.42187 2.6953-1.2656v4.457c0 1.2383-0.55469 1.8164-1.5312 1.8164-0.98047 0-1.4023-0.57813-1.4023-1.8164v-0.97656h-2.8594v1.1602c0 2.4258 1.668 4.2734 4.2617 4.2188 3.2773 0 4.6562-1.6367 4.6562-5.2188v-9.125c0-3.5859-1.3789-5.2188-4.6562-5.2188"/>
   <path d="m205.59 180.52v1.7695h2.5898v15.078h2.9648v-19.301h-1.668c-1.082 0.92188-2.4297 1.7148-3.8867 2.4531"/>
   <path d="m221.21 178.07c-1.0898 0.92188-2.4414 1.7148-3.8945 2.4531v1.7695h2.5938v15.078h2.9648v-19.301h-1.6641"/>
   <path d="m57.094 146.39-8-4.9023 2.5898-4.2344-2.6992-1.6562-2.5898 4.2383-4.6523-2.8476 3.4648-5.668-2.6992-1.6524-5.4023 8.832 18.055 11.055 1.9336-3.1641"/>
   <path d="m67.527 132.95c2.4023-2.5859 2.418-5.5234-0.23438-8.0156l-11.547-10.848-2.5273 2.7148 11.652 10.945c1.1367 1.0664 1.2617 2.0469 0.34766 3.0312-0.91797 0.98437-1.9023 0.92187-3.0352-0.14063l-11.656-10.949-2.5234 2.7148 11.543 10.848c2.6562 2.4883 5.5742 2.2812 7.9805-0.30078"/>
   <path d="m78.184 117.11c0.72266 1.0352 0.40625 2.0898-0.64062 2.8359-0.96875 0.69141-2.2812 0.32813-3.6367-1.3398l-2.582 2.457c1.9453 2.5078 5.1016 3.5742 7.8984 1.582 2.8203-2.0117 3.6523-4.9844 1.6445-7.8476-3.3086-4.707-10.434-1.7578-12.512-4.7148-0.75781-1.0781-0.66406-2.0859 0.30859-2.7812 0.68359-0.48437 1.7891-0.625 2.957 0.77735l2.6484-2.3555c-1.9883-2.2617-4.6797-2.9766-7.1367-1.2266-2.9648 2.1172-3.5703 4.8945-1.6289 7.6562 3.4961 4.9766 10.266 1.5195 12.68 4.957"/>
   <path d="m92.262 109.45c0.51562 1.1562 0.0039 2.1328-1.1602 2.6641-1.0859 0.49609-2.3047-0.11329-3.3164-2.0117l-2.9961 1.9141c1.4297 2.8398 4.3203 4.4961 7.4414 3.0742 3.1484-1.4336 4.5273-4.1953 3.1055-7.3945-2.3477-5.2656-9.8906-3.7383-11.363-7.043-0.53906-1.2109-0.25391-2.1797 0.83203-2.6758 0.76172-0.34375 1.8711-0.26953 2.75 1.3359l3.0469-1.8125c-1.5195-2.6016-4.0195-3.8203-6.7617-2.5742-3.3125 1.5078-4.4336 4.1211-3.0586 7.2109 2.4805 5.5625 9.7695 3.4688 11.48 7.3125"/>
   <path d="m106.36 106.75-1.5078 0.35156-1.4219-6.3867 1.1602-0.26953c2.1484-0.5 3.1953 0.37891 3.668 2.5039 0.46875 2.1016 0.0156 3.3594-1.8984 3.8008zm-4.8203-14.555 1.3633-0.3125c1.5938-0.37109 2.5703 0.46094 3 2.3906 0.38281 1.7266-0.45703 2.8867-1.8203 3.2031l-1.3047 0.30078zm6.3476 5.793c1.5859-1.0938 1.9258-3.1406 1.5274-4.9219-0.78516-3.5391-2.9336-5.1016-6.7891-4.207l-5.3359 1.2383 4.6172 20.77 5.6836-1.3164c4.0898-0.94922 5.0508-3.8945 4.293-7.3164-0.59766-2.6758-1.9883-3.8672-3.9961-4.2461"/>
   <path d="m121.5 99.719 1.2969-9.1875h0.0586l1.6172 9.1094zm3.5391-13.496-4.5742 0.11719-3.5781 21.406 3.5625-0.0859 0.57031-4.7383 4.043-0.10547 0.73437 4.707 3.5664-0.0898-4.3242-21.211"/>
   <path d="m140.41 87.418-3.6328-0.58594-3.5078 21.055 9.3477 1.5 0.52344-3.1484-5.7109-0.91797 2.9805-17.902"/>
   <path d="m156.55 110.58-5.4648-1.8984 6.0156-17.137-3.4727-1.207-7.0742 20.152 8.9375 3.1055 1.0586-3.0156"/>
   <path d="m166.12 110.55 2.3047-1.4102 0.0508 0.0312-2.332 10.117 3.2422 1.8555 2.7656-13.859 7.3984-4.9336-3.1914-1.8281-7.2656 4.9453-0.0508-0.0312 3.9219-6.8594-3.1914-1.8242-10.605 18.543 3.1914 1.8281 3.7617-6.5742"/>
   <path d="m179.17 129.4 2.0664-2.4414-4.4023-3.75 11.734-13.863-2.8008-2.3867-13.797 16.301 7.1992 6.1406"/>
   <path d="m185.33 136.98c2.168 2.7539 5.0586 3.1836 7.9258 0.90235l12.477-9.9453-2.2734-2.8945-12.594 10.035c-1.2266 0.97656-2.2148 0.96484-3.0391-0.0859-0.82422-1.0508-0.60938-2.0195 0.61328-2.9922l12.598-10.035-2.2774-2.8945-12.48 9.9414c-2.8633 2.2812-3.1133 5.2148-0.94922 7.9688"/>
   <path d="m208.81 145.76c-1.5898 0.77734-2.8984 0.23047-3.5039-1.0312l-0.57813-1.207 5.1367-2.5156 0.60547 1.2578c0.70703 1.4766 0.11328 2.6289-1.6602 3.4961zm-7.8984 4.3359c-1.9336 0.94531-3.25 0.79687-4.0977-0.97657l-0.66797-1.3945 5.8789-2.8789 0.51562 1.0742c0.94922 1.9844 0.32813 3.2148-1.6289 4.1758zm12.43-8.8086-2.3672-4.9336-19.129 9.3711 2.5234 5.2578c1.8125 3.7812 4.8789 4.0352 8.0312 2.4883 2.4648-1.207 3.3125-2.8477 3.2422-4.8984 1.4102 1.2969 3.4648 1.1484 5.1055 0.34765 3.2578-1.5976 4.3008-4.0625 2.5938-7.6328"/>
   <path d="m46.355 240.7-1.6094-2.5273 8.4531-3.6328 0.03125 0.0508zm9.1797-10.34-19.984 7.9766 1.9297 3.0352 4.3086-1.957 2.1836 3.4375-3.6016 3.0664 1.9258 3.0352 15.715-14.703-2.4766-3.8906"/>
   <path d="m67.785 246.13-11.586 10.98c-1.125 1.0664-2.1094 1.1328-3.0391 0.15625-0.92578-0.98047-0.80469-1.9609 0.32031-3.0273l11.586-10.98-2.5547-2.6953-11.477 10.879c-2.6367 2.4961-2.6016 5.4336-0.17188 8 2.4297 2.5664 5.3594 2.7617 7.9961 0.26172l11.48-10.879-2.5547-2.6953"/>
   <path d="m79.898 262.07c1.457-2.6289 1.2266-5.4141-1.2383-7.1641-2.9805-2.1133-5.7891-1.7734-7.7344 0.97657-3.5039 4.9492 2.0039 10.223-0.41406 13.645-0.73047 1.0273-1.8242 1.0742-2.875 0.32812-0.97656-0.6914-1.0781-2.0547 0.03516-3.8867l-3.168-1.6406c-1.707 2.6719-1.6523 6.0117 1.1562 8.0078 2.832 2.0078 5.9023 1.8164 7.918-1.0273 3.3164-4.6875-1.8359-10.465 0.24609-13.406 0.76172-1.0742 1.7383-1.3164 2.7148-0.6211 0.68359 0.48438 1.1836 1.4844 0.25781 3.0547l3.1016 1.7344"/>
   <path d="m95.371 264.38-9.8711-4.6133-1.3359 2.8672 3.2539 1.5234-7.5859 16.312 3.3633 1.5703 7.5898-16.312 3.2539 1.5195 1.332-2.8672"/>
   <path d="m105.01 273.64c-0.61328 2.4453-1.5156 2.9766-3.457 2.4844l-1.2773-0.32031 1.5742-6.3125 1.2734 0.32031c1.9453 0.48828 2.4922 1.3828 1.8867 3.8281zm-0.98828-6.6875-5.0508-1.2695-5.1172 20.539 3.6016 0.90234 2.0938-8.418c0.64062 0.16016 1.4023 0.32422 1.8789 0.38282l0.4375 9.1445 3.6562 0.92187-0.73047-10.07c1.3555-0.23437 2.9922-1.2422 3.8164-4.5391 1.0898-4.3789-0.55078-6.5781-4.5859-7.5938"/>
   <path d="m114.27 290.2 3.6953 0.28516 1.5977-21.109-3.6992-0.28515-1.5938 21.109"/>
   <path d="m129.98 282.58 0.67969-9.1836 0.0586-4e-3 2.2422 8.9375zm-1.9492-13.199-2.1445 21.434 3.5742-0.30079 0.25391-4.7305 4.0508-0.34375 1.0625 4.6211 3.5742-0.30078-5.7812-20.766-4.5898 0.38672"/>
   <path d="m161.52 260 3.7031 13.145-0.0547 0.0273-7.8711-11.258-2.7773 1.2578 3.375 13.289-0.0547 0.0274-7.6484-11.355-3.1562 1.4297 12.488 17.605 2.832-1.2852-3.5-13.781 0.0547-0.0234 8.2383 11.637 2.832-1.2812-5.3047-20.863-3.1562 1.4297"/>
   <path d="m168.14 255.73 12.301 17.258 3.0195-2.1524-12.297-17.258-3.0234 2.1523"/>
   <path d="m191.15 260.22-4.3438-4.4531 3.418-3.3398-2.2109-2.2695-3.4219 3.3398-3.8125-3.9062 4.4453-4.3438-2.2109-2.2695-7.1016 6.9336 14.801 15.168 7.3984-7.2227-2.2148-2.2695-4.7461 4.6328"/>
   <path d="m190.84 232.63 9.9492 6.9219-0.0352 0.0508-12.52-3.2188-1.9648 2.8242 17.391 12.105 1.9102-2.75-10.863-7.5586 0.0352-0.0508 13.555 3.6797 1.8398-2.6484-17.387-12.105-1.9102 2.75"/>
  </g>
  <path d="m79.562-0.0039062 6.5977 20.316h21.359l-17.277 12.555 6.5977 20.316-17.277-12.555-17.285 12.555 6.6055-20.316-17.281-12.555h21.359l6.6016-20.316" fill="#9e8a4f"/>
  <path d="m166.06-0.0039062 6.6016 20.316h21.359l-17.277 12.555 6.6016 20.316-17.285-12.555-17.281 12.555 6.6016-20.316-17.277-12.555h21.355l6.6016-20.316" fill="#9e8a4f"/>
 </g>
</svg>
