<?xml version="1.0" encoding="UTF-8"?>
<svg version="1.1" viewBox="0 0 418 424.87" width="313.660700137" height="318.815841309" xmlns="http://www.w3.org/2000/svg" xmlns:xlink="http://www.w3.org/1999/xlink">
 <defs>
  <linearGradient id="p" x1="117.77" x2="330.35" y1="13.23" y2="225.81" gradientUnits="userSpaceOnUse">
   <stop stop-color="#fff" stop-opacity="0" offset=".28"/>
   <stop stop-color="#fff" offset="1"/>
  </linearGradient>
  <linearGradient id="j" x1="154.15" x2="154.15" y1="241.96" y2="113.8" gradientUnits="userSpaceOnUse">
   <stop stop-color="#fff" offset="0"/>
   <stop stop-color="#e7e6e8" offset=".29"/>
   <stop stop-color="#d4d4d5" offset=".57"/>
   <stop stop-color="#cacaca" offset=".8"/>
   <stop stop-color="#d6d6d6" offset=".83"/>
   <stop stop-color="#ededed" offset=".89"/>
   <stop stop-color="#fafafa" offset=".95"/>
   <stop stop-color="#fff" offset="1"/>
  </linearGradient>
  <linearGradient id="o" x1="267.85" x2="267.85" y1="241.78" y2="111.74" xlink:href="#j"/>
  <linearGradient id="i" x1="216.59" x2="216.59" y1="299.4" y2="264.19" gradientUnits="userSpaceOnUse">
   <stop stop-color="#fff" offset="0"/>
   <stop stop-color="#e7e6e8" offset=".38"/>
   <stop stop-color="#e7e6e8" offset=".52"/>
   <stop stop-color="#e7e6e8" offset=".55"/>
   <stop stop-color="#d4d4d5" offset=".69"/>
   <stop stop-color="#cacaca" offset=".8"/>
   <stop stop-color="#dadada" offset=".81"/>
   <stop stop-color="#ebebeb" offset=".84"/>
   <stop stop-color="#f6f6f6" offset=".86"/>
   <stop stop-color="#fdfdfd" offset=".9"/>
   <stop stop-color="#fff" offset="1"/>
  </linearGradient>
  <linearGradient id="n" x1="242.17" x2="242.17" y1="298.83" y2="264.19" xlink:href="#i"/>
  <linearGradient id="m" x1="271.65" x2="271.65" y1="298.83" y2="264.19" xlink:href="#i"/>
  <linearGradient id="l" x1="305.02" x2="305.02" y1="298.83" y2="264.19" xlink:href="#i"/>
  <linearGradient id="k" x1="382.3" x2="382.3" y1="239.9" y2="113.8" xlink:href="#j"/>
 </defs>
 <path transform="translate(-55 -49.8)" d="M467,75.76a451.12,451.12,0,0,1-48.61-5.57c-20.44-3.36-40.41-9-60.83-12.48a557.39,557.39,0,0,0-187.14,0C150,61.22,130,66.83,109.6,70.19A451.12,451.12,0,0,1,61,75.76c-3.9.21-6,.24-6,.24s2.33,75.33,21,158.33,56.33,187,188,240.34c131.67-53.34,169.33-157.34,188-240.34S473,76,473,76,470.91,76,467,75.76Z" fill="#252960"/>
 <path transform="translate(-55 -49.8)" d="m416.13 84c-11-1.8-21.78-4.22-32.24-6.56-9.43-2.11-19.17-4.3-28.69-5.93a543.25 543.25 0 0 0-182.4 0c-9.52 1.63-19.26 3.82-28.69 5.93-10.46 2.34-21.28 4.76-32.23 6.56-15.21 2.51-29.08 4.23-42.18 5.22 1.59 25.17 6.42 81.85 20 142 6.21 27.62 15.27 61.65 32 95.65a288 288 0 0 0 17.65 31 257.6 257.6 0 0 0 63.06 66.83 299.18 299.18 0 0 0 61.59 34.82 299.18 299.18 0 0 0 61.61-34.74 257.6 257.6 0 0 0 63.06-66.78 288 288 0 0 0 17.65-31c16.74-34 25.8-68 32-95.65 13.54-60.19 18.37-116.87 20-142-13.11-1.12-26.99-2.84-42.19-5.35zm-187.23 346.5q-6.14-3.69-12-7.67h94.16q-5.83 4-12 7.67zm102.1-22.6h-134q-5.22-4.32-10.15-8.9h154.26q-4.94 4.58-10.11 8.9zm23.25-22h-180.46q-5.06-5.44-9.79-11.23h200q-4.74 5.77-9.79 11.23zm26.09-33.43q-3.84 5.85-7.93 11.43h-216.78q-4.09-5.58-7.93-11.43l-1.17-1.8h234.94zm6.58-10.57h-245.8q-4.58-7.74-8.54-15.55h262.84q-3.98 7.8-8.54 15.55zm41.7-112.84c-5.91 26.32-14.47 58.58-30 90.84h-269.24c-15.49-32.26-24-64.52-30-90.84-11.7-52.16-16.83-101.31-19.03-130.74 10.44-1 21.37-2.51 33.15-4.45 11.24-1.85 22.19-4.3 32.78-6.67 9.32-2.09 18.95-4.24 28.22-5.84a533.56 533.56 0 0 1 179 0c9.27 1.6 18.9 3.75 28.2 5.83 10.61 2.38 21.57 4.83 32.81 6.68 11.77 1.94 22.7 3.41 33.14 4.45-2.2 29.43-7.33 78.58-19.07 130.74z" fill="#fff"/>
 <path transform="translate(-55 -49.8)" d="M471,75.94v.38A37.27,37.27,0,0,1,467,86c-19.56,33.35-63.7,43.81-98.36,52.67-74.25,19-151.41,27.4-220.33,63-26.2,13.56-48.92,34.17-60,62.07a69.73,69.73,0,0,0-2.65,7.74l-.06,0c-3.74-12.7-6.85-25.19-9.56-37.23C57.33,151.33,55,76,55,76s2.09,0,6-.24a451.12,451.12,0,0,0,48.61-5.57c20.44-3.36,40.41-9,60.83-12.48a557.39,557.39,0,0,1,187.14,0C378,61.22,398,66.83,418.4,70.19A451.12,451.12,0,0,0,467,75.76C468.68,75.85,470,75.9,471,75.94Z" fill="url(#p)" opacity=".6"/>
 <path transform="translate(-55 -49.8)" d="M131.43,113.8v72.59c0,21.71,8.16,32.75,22.63,32.75,14.84,0,23-10.48,23-32.75V113.8h28.19v70.72c0,38.92-19.47,57.44-52.12,57.44-31.53,0-50.08-17.58-50.08-57.81V113.8Z" fill="url(#j)"/>
 <path transform="translate(-55 -49.8)" d="m230.66 210.53a71.68 71.68 0 0 0 31.34 7.86c13 0 19.85-5.43 19.85-13.66 0-7.86-5.94-12.35-21-17.78-20.77-7.29-34.32-18.89-34.32-37.23 0-21.52 17.81-38 47.3-38 14.1 0 24.49 3 31.91 6.36l-6.31 23a59.06 59.06 0 0 0-26.15-6c-12.25 0-18.18 5.61-18.18 12.16 0 8 7 11.6 23.18 17.77 22.08 8.24 32.46 19.84 32.46 37.61 0 21.14-16.13 39.11-50.45 39.11-14.28 0-28.38-3.75-35.43-7.68z" fill="url(#o)"/>
 <path transform="translate(-55 -49.8)" d="M218.66,264.19h6.26v22.46c0,9.56-4.58,12.75-11.41,12.75a16.42,16.42,0,0,1-5.25-.83l.77-5.08a13.83,13.83,0,0,0,3.87.61c3.56,0,5.76-1.64,5.76-7.65Z" fill="url(#i)"/>
 <path transform="translate(-55 -49.8)" d="M251,283.46H238.07v10.18h14.47v5.19H231.8V264.19h20v5.19h-13.7v8.95H251Z" fill="url(#n)"/>
 <path transform="translate(-55 -49.8)" d="M258,298.83V264.19h7.14L274,279a96.65,96.65,0,0,1,5.86,11.62h.1c-.41-4.63-.56-9.1-.56-14.39V264.19h5.81v34.64h-6.47l-9-15.21a120.14,120.14,0,0,1-6.16-12l-.15.06c.25,4.47.3,9,.3,14.75v12.38Z" fill="url(#m)"/>
 <path transform="translate(-55 -49.8)" d="M299.37,289l-3,9.81h-6.47l11-34.64h8l11.15,34.64h-6.72L310.27,289Zm9.83-4.78-2.7-8.53c-.66-2.11-1.22-4.48-1.73-6.48h-.1c-.51,2-1,4.42-1.63,6.48l-2.65,8.53Z" fill="url(#l)"/>
 <path transform="translate(-55 -49.8)" d="M404.46,113.8l-4.88,16.47-11.07,37.41c-4.26,14.41-8.16,29.38-11.31,44.53h-.56c-3-15.71-6.86-30.12-11.13-45.09l-7.37-25.85c-9.32,2.27-18.67,4.39-28,6.44l29.29,92.19h33l41.18-123.36.92-2.74Z" fill="url(#k)"/>
 <path transform="translate(-55 -49.8)" d="m358.14 141.27c-9.32 2.27-18.67 4.39-28 6.44l-10.81-33.91h31z" fill="#f3f3f3"/>
</svg>