<svg width="122" height="124" viewBox="0 0 122 124" fill="none" xmlns="http://www.w3.org/2000/svg">
<path d="M48.7403 0C22.2524 0 0.728882 21.5235 0.728882 48.0114C0.728882 74.4993 22.2524 96.0228 48.7403 96.0228C59.2207 96.0228 68.9068 92.647 76.8057 86.9324L113.962 124L121.905 116.057L85.1901 79.2541C92.405 70.8477 96.7517 59.937 96.7517 48.0114C96.7517 21.5235 75.2282 0 48.7403 0ZM48.7403 5.6484C72.1723 5.6484 91.1033 24.5794 91.1033 48.0114C91.1033 71.4434 72.1723 90.3744 48.7403 90.3744C25.3082 90.3744 6.37728 71.4434 6.37728 48.0114C6.37728 24.5794 25.3082 5.6484 48.7403 5.6484Z" fill="white"/>
</svg>
