<svg width="125" height="124" viewBox="0 0 125 124" fill="none" xmlns="http://www.w3.org/2000/svg">
<path d="M62.7289 2.88983C95.3051 2.88983 121.839 29.4237 121.839 62C121.839 94.5763 95.3051 121.11 62.7289 121.11C30.1526 121.11 3.61871 94.5763 3.61871 62C3.61871 29.4237 30.1526 2.88983 62.7289 2.88983ZM62.7289 0C28.4713 0 0.728882 27.7424 0.728882 62C0.728882 96.2576 28.4713 124 62.7289 124C96.9865 124 124.729 96.2576 124.729 62C124.729 27.7424 96.9865 0 62.7289 0Z" fill="white"/>
<path d="M62.7289 65.4149C52.8509 65.4149 44.812 57.376 44.812 47.498C44.812 37.62 52.8509 29.5811 62.7289 29.5811C72.6069 29.5811 80.6458 37.62 80.6458 47.498C80.6458 57.376 72.6069 65.4149 62.7289 65.4149ZM62.7289 32.4709C54.4797 32.4709 47.7018 39.1963 47.7018 47.498C47.7018 55.7997 54.4272 62.5251 62.7289 62.5251C70.9781 62.5251 77.756 55.7997 77.756 47.498C77.756 39.1963 70.9781 32.4709 62.7289 32.4709Z" fill="white"/>
<path d="M91.7847 94.4715C90.9966 94.4715 90.3135 93.8409 90.3135 93.0003C90.3135 77.763 77.9135 65.4155 62.7288 65.4155C47.4915 65.4155 35.144 77.8155 35.144 93.0003C35.144 93.7884 34.5135 94.4715 33.6728 94.4715C32.8322 94.4715 32.2017 93.8409 32.2017 93.0003C32.2017 76.1867 45.9152 62.4731 62.7288 62.4731C79.5423 62.4731 93.2559 76.1867 93.2559 93.0003C93.2559 93.7884 92.5729 94.4715 91.7847 94.4715Z" fill="white"/>
</svg>
